<svg id="Layer_1" data-name="Layer 1" xmlns="http://www.w3.org/2000/svg" viewBox="0 0 20 19.66"><title>yamaha</title><polygon id="polygon5364" points="15.59 17.62 15.59 19.66 16.54 19.66 16.54 14.78 15.59 14.78 15.59 16.73 14.76 16.73 14.76 14.78 13.8 14.78 13.8 19.66 14.76 19.66 14.76 17.62 15.59 17.62"/><polygon id="polygon5366" points="7.83 19.66 8.41 19.66 8.93 16.56 8.93 19.66 9.81 19.66 9.81 14.78 8.51 14.78 8.12 17.13 7.74 14.78 6.44 14.78 6.44 19.66 7.31 19.66 7.31 16.56 7.83 19.66"/><polygon id="polygon5368" points="2.04 18.06 2.04 19.66 1.02 19.66 1.02 18.06 0 14.78 0.95 14.78 1.53 16.96 2.11 14.78 3.06 14.78 2.04 18.06"/><path id="path5370" d="M5.08,15.12H3.82L3,20h.94l.16-1.16H4.8L5,20h1Zm-.64,1.1L4.68,18H4.21Z" transform="translate(0 -0.34)"/><path id="path5372" d="M12.44,15.12H11.17L10.34,20h.95l.16-1.16h.71L12.32,20h.95Zm-.64,1.1L12,18h-.47Z" transform="translate(0 -0.34)"/><path id="path5374" d="M19.17,15.12H17.91L17.08,20H18l.16-1.16h.71L19.05,20H20Zm-.63,1.1L18.77,18H18.3Z" transform="translate(0 -0.34)"/><path id="path5399" d="M10,.34A6.15,6.15,0,0,0,4,6.63a6.16,6.16,0,0,0,6,6.29,6.16,6.16,0,0,0,6-6.29A6.15,6.15,0,0,0,10,.34Zm0,.25a5.9,5.9,0,0,1,5.77,6,5.91,5.91,0,0,1-5.77,6,5.91,5.91,0,0,1-5.77-6A5.9,5.9,0,0,1,10,.59Zm0,.12a.12.12,0,0,0-.11.08l-.25.82a4.94,4.94,0,0,0-4.45,5,5.12,5.12,0,0,0,.48,2.18l-.56.64a.14.14,0,0,0,0,.14.13.13,0,0,0,.12.06L6,9.46a4.68,4.68,0,0,0,7.94,0l.81.19a.12.12,0,0,0,.11-.07.12.12,0,0,0,0-.13l-.56-.64a5.12,5.12,0,0,0,.48-2.18,4.94,4.94,0,0,0-4.45-5L10.11.79A.12.12,0,0,0,10,.71Zm0,.12a0,0,0,0,1,0,0l.51,1.77h0a.67.67,0,0,0-.24.51.65.65,0,0,0,.24.5h0a1,1,0,0,1,.36.75V5l2.19-1.32.24.43L10.9,5.57v.51l.42.25,2.43-1.46L14,5.3,11.8,6.62l.49.3h0a1,1,0,0,1,.45.7h0a.61.61,0,0,0,.29.47.58.58,0,0,0,.54,0l1.21,1.35s0,0,0,0h0L13,9.11h0a.63.63,0,0,0-.3-.47.56.56,0,0,0-.53,0h0a.87.87,0,0,1-.81,0l-.49-.29v2.63h-.48V8L10,7.71,9.58,8v2.93H9.1V8.26l-.49.29h0a.87.87,0,0,1-.81,0h0a.56.56,0,0,0-.53,0,.63.63,0,0,0-.3.47l-1.72.42s0,0,0,0a0,0,0,0,1,0,0L6.43,8.12h0a.58.58,0,0,0,.54,0,.61.61,0,0,0,.29-.47h0a1,1,0,0,1,.45-.7h0l.49-.3L6,5.3l.24-.43L8.68,6.33l.42-.25V5.57L6.67,4.1l.25-.43L9.1,5v-.6a1,1,0,0,1,.36-.75h0a.65.65,0,0,0,.24-.5.67.67,0,0,0-.24-.51L10,.86A0,0,0,0,1,10,.83ZM10,4a.43.43,0,0,0-.42.44v.89l.42.25.42-.25V4.39A.43.43,0,0,0,10,4Zm0,2.16-.42.26v.51l.42.25.42-.25V6.37Zm-1.32.8L8,7.35a.46.46,0,0,0-.16.6.42.42,0,0,0,.58.17l.73-.45v-.5Zm2.64,0-.42.26v.5l.73.45A.42.42,0,0,0,12.21,8a.46.46,0,0,0-.16-.6Z" transform="translate(0 -0.34)"/></svg>